# xmcd
#
# Track frame offsets:
#	150
#	18369
#	32903
#	44869
#	61188
#	76451
#	98977
#	114083
#	129405
#	140747
#	151776
#
# Disc length: 2288 seconds
#
# Revision: 1
# Processed by: cddbd v1.5.2PL0 Copyright (c) Steve Scherf et al.
# Submitted via: audiograbber 1.83.01
#
DISCID=8d08ee0b
DTITLE=Zécard - Brasil Moreño
DYEAR=1900
DGENRE=Latin
TTITLE0=Brasil Moreno
TTITLE1=Boqueirào
TTITLE2=Samba en Marseille
TTITLE3=Balle de arrepiar
TTITLE4=Proj 98
TTITLE5=Malentendu (bagarre d'amour)
TTITLE6=Regret
TTITLE7=Porque era Carnaval
TTITLE8=Flor menina
TTITLE9=Falando de estrada
TTITLE10=Pirao de peixe
EXTD=
EXTT0=
EXTT1=
EXTT2=
EXTT3=
EXTT4=
EXTT5=
EXTT6=
EXTT7=
EXTT8=
EXTT9=
EXTT10=
PLAYORDER=
